<?xml version="1.0" standalone="no"?>
<!DOCTYPE svg PUBLIC "-//W3C//DTD SVG 20010904//EN"
 "http://www.w3.org/TR/2001/REC-SVG-20010904/DTD/svg10.dtd">
<svg version="1.0" xmlns="http://www.w3.org/2000/svg"
 width="512.000000pt" height="512.000000pt" viewBox="0 0 512.000000 512.000000"
 preserveAspectRatio="xMidYMid meet">
<metadata>
Created by potrace 1.14, written by Peter Selinger 2001-2017
</metadata>
<g transform="translate(0.000000,512.000000) scale(0.100000,-0.100000)"
fill="#000000" stroke="none">
<path d="M721 4488 c-1 -21 -17 -24 -25 -5 -3 6 -4 -1 -1 -16 5 -24 4 -27 -9
-15 -7 7 -12 16 -10 20 2 4 0 9 -5 12 -5 4 -8 -8 -5 -26 2 -18 1 -27 -2 -20
-3 6 -10 12 -15 12 -6 0 -7 -4 -4 -10 3 -5 -1 -10 -10 -10 -10 0 -13 5 -9 12
4 7 3 8 -4 4 -7 -4 -12 -14 -12 -22 0 -8 -5 -14 -11 -14 -5 0 -8 4 -5 8 3 5
-1 9 -8 9 -8 0 -12 -7 -8 -15 4 -11 1 -13 -9 -8 -8 4 -5 0 6 -10 17 -14 17
-16 3 -11 -25 9 -48 -2 -41 -19 3 -8 2 -14 -3 -13 -19 3 -34 -1 -34 -11 0 -5
8 -7 18 -3 18 7 17 5 -11 -17 -14 -10 -17 -11 -15 0 2 7 -4 15 -12 17 -13 4
-13 3 0 -6 8 -6 11 -11 7 -11 -4 0 -3 -9 3 -20 9 -16 8 -18 -5 -14 -8 4 -15 1
-15 -5 0 -6 5 -11 10 -11 6 0 5 -6 -2 -14 -8 -9 -19 -11 -28 -6 -12 6 -16 3
-17 -11 -1 -10 3 -19 8 -19 6 0 7 5 3 12 -5 7 -3 8 6 3 10 -6 9 -11 -4 -21
-13 -9 -14 -13 -4 -17 9 -4 7 -6 -4 -6 -9 -1 -20 -6 -24 -13 -5 -7 -3 -8 6 -3
9 6 10 1 6 -16 -7 -23 -7 -23 8 -5 9 11 16 15 16 10 0 -6 -9 -20 -20 -32 -16
-17 -17 -22 -6 -22 8 0 18 -4 21 -10 3 -5 0 -7 -8 -4 -8 3 -18 0 -23 -7 -4 -7
-3 -10 3 -6 6 4 14 0 17 -9 3 -8 2 -12 -3 -9 -5 3 -12 1 -16 -5 -3 -5 1 -10 9
-10 19 0 21 -16 4 -26 -7 -5 -8 -2 -3 7 5 8 4 11 0 6 -13 -12 -14 -48 -1 -38
13 11 14 -45 1 -57 -5 -4 -5 -1 0 7 5 9 4 12 -3 8 -5 -4 -8 -16 -5 -28 4 -14
8 -17 13 -8 5 7 7 2 7 -14 -1 -14 -5 -23 -8 -21 -4 2 -10 -3 -13 -12 -5 -12
-2 -15 10 -10 15 6 15 4 -1 -20 -9 -15 -13 -24 -9 -21 5 3 16 -2 24 -11 13
-14 12 -15 -2 -10 -10 4 -19 1 -22 -8 -3 -9 -1 -12 4 -9 6 3 10 3 11 -2 4 -46
2 -76 -5 -80 -5 -4 -6 0 -1 8 5 8 4 11 0 6 -11 -9 -14 -47 -4 -47 4 0 10 6 13
13 3 6 3 2 1 -10 -3 -12 -1 -24 5 -28 7 -4 5 -13 -4 -27 -12 -16 -13 -26 -4
-42 10 -18 9 -19 -3 -9 -12 10 -15 8 -15 -7 0 -10 3 -17 7 -14 4 2 10 -3 13
-12 3 -8 2 -13 -3 -10 -5 3 -12 -2 -15 -11 -4 -10 -4 -14 0 -11 3 4 13 1 20
-7 18 -18 18 -31 0 -16 -11 9 -15 8 -20 -4 -3 -9 -2 -14 3 -11 5 3 12 -1 15
-10 3 -9 2 -12 -5 -8 -7 4 -9 -6 -5 -31 5 -27 3 -34 -6 -29 -10 6 -10 5 -1 -8
7 -8 9 -19 5 -23 -4 -5 -1 -5 6 -1 7 4 10 11 7 16 -3 5 0 12 7 16 7 4 10 4 6
-1 -4 -4 -3 -16 3 -26 7 -14 7 -19 -2 -17 -6 2 -14 -4 -16 -12 -3 -11 -2 -12
4 -2 7 10 15 8 33 -8 19 -16 20 -21 7 -26 -8 -3 -18 -12 -21 -20 -4 -12 -1
-11 18 1 22 14 23 14 23 -2 0 -36 3 -43 18 -43 8 0 15 -5 15 -11 0 -5 -4 -8
-8 -5 -5 3 -9 -1 -9 -9 0 -9 4 -11 11 -6 15 11 46 10 46 -2 0 -5 -7 -7 -15 -4
-8 4 -17 1 -21 -5 -4 -6 -3 -8 4 -4 6 3 13 2 17 -4 4 -7 13 -7 26 1 20 10 20
10 2 -17 -10 -16 -12 -25 -5 -21 7 5 12 3 12 -3 0 -8 6 -8 20 0 12 6 18 16 14
23 -4 7 5 0 20 -15 15 -16 32 -25 41 -22 17 7 20 -6 5 -24 -6 -6 -7 -10 -4 -7
4 3 13 0 21 -7 11 -8 12 -7 7 6 -3 9 -1 16 5 16 6 0 11 -5 11 -11 0 -8 6 -7
17 2 9 8 14 9 10 3 -4 -7 0 -15 9 -18 8 -3 12 -2 9 3 -3 5 -1 12 5 16 5 3 10
-2 10 -11 0 -16 1 -16 16 2 8 10 13 13 9 7 -3 -7 -1 -13 5 -13 6 0 8 -5 4 -12
-4 -7 -3 -8 5 -4 6 4 9 12 6 17 -4 5 -1 9 5 9 6 0 13 -7 17 -16 5 -14 7 -14
14 -1 6 9 17 13 29 10 13 -3 20 0 20 8 1 8 7 3 15 -11 l14 -25 1 24 c0 24 0
24 16 5 8 -10 13 -14 10 -7 -4 6 -2 14 4 18 5 3 10 -1 10 -9 0 -10 6 -13 17
-9 12 5 14 3 8 -8 -7 -11 -6 -12 6 -2 8 6 27 10 42 9 22 -3 27 0 22 12 -5 13
-3 13 11 1 18 -15 47 -22 39 -9 -3 4 2 10 10 14 8 3 17 0 21 -6 4 -7 3 -8 -4
-4 -8 5 -10 1 -5 -9 3 -9 9 -12 12 -7 3 5 19 8 34 7 23 -3 27 0 22 13 -5 13
-1 12 16 -4 12 -10 19 -14 16 -8 -4 7 0 15 9 18 8 3 13 2 10 -3 -3 -5 1 -12
10 -15 8 -3 13 -2 10 3 -3 5 1 11 9 15 8 3 17 0 21 -6 4 -7 3 -8 -4 -4 -8 5
-10 1 -5 -9 3 -9 9 -12 12 -7 3 5 19 8 34 7 23 -3 27 0 22 13 -5 13 -1 12 16
-4 12 -10 19 -14 16 -7 -4 6 -3 14 3 18 5 3 10 -1 10 -9 0 -9 5 -16 11 -16 6
0 9 6 6 14 -7 17 32 16 51 -1 7 -7 19 -10 28 -6 16 6 57 -34 48 -48 -3 -5 -1
-9 5 -9 5 0 11 3 14 8 2 4 2 1 0 -6 -5 -20 8 -37 17 -22 4 7 6 -6 5 -28 -2
-38 -1 -40 19 -32 19 7 22 4 22 -16 0 -13 -4 -24 -10 -24 -5 0 -6 -3 -3 -6 4
-4 13 -1 21 5 11 9 16 9 22 0 4 -7 3 -9 -3 -6 -11 7 -28 -22 -18 -31 3 -3 5
-1 5 5 0 6 10 13 23 16 21 6 21 6 3 -8 -19 -14 -19 -15 -2 -15 16 0 17 -2 5
-17 -9 -10 -9 -14 -2 -10 15 10 46 -35 38 -55 -4 -9 0 -15 9 -15 8 0 13 8 11
19 -2 11 0 16 6 12 6 -3 8 -9 5 -12 -3 -3 -1 -11 4 -17 7 -9 7 -22 0 -41 -9
-23 -9 -27 1 -16 18 17 34 15 19 -3 -11 -13 -10 -14 4 -9 11 4 16 1 16 -11 0
-10 -5 -14 -12 -10 -7 4 -4 0 6 -9 10 -8 23 -13 28 -10 5 3 8 2 7 -3 -4 -20 2
-27 12 -13 9 13 10 13 6 0 -2 -8 4 -21 13 -30 9 -8 9 -11 2 -5 -12 8 -14 6 -7
-14 5 -18 4 -22 -6 -16 -11 6 -11 5 -3 -4 6 -7 21 -13 33 -14 15 -1 21 -8 21
-25 0 -16 -4 -21 -12 -16 -10 6 -10 5 -1 -8 7 -8 9 -19 5 -23 -4 -5 -2 -5 4
-2 7 4 19 -4 28 -18 11 -17 13 -25 5 -25 -7 0 -10 -2 -7 -5 3 -3 18 -1 34 5
l29 11 -25 -28 c-14 -15 -17 -21 -7 -13 16 12 21 10 45 -15 15 -15 22 -25 15
-21 -6 3 -14 2 -18 -4 -3 -5 2 -10 12 -10 15 0 16 -2 3 -10 -12 -8 -12 -10 5
-10 18 -1 18 -2 4 -12 -15 -10 -13 -14 13 -40 16 -15 33 -28 38 -28 6 0 10 -5
10 -11 0 -5 5 -7 12 -3 7 4 8 3 4 -5 -6 -8 -12 -9 -20 -2 -9 8 -12 6 -11 -9 1
-11 5 -23 10 -27 4 -5 5 -2 1 5 -4 6 -3 12 3 12 5 0 18 3 28 6 14 5 15 4 4 -4
-15 -11 -24 -42 -13 -41 4 1 16 1 27 -1 l20 -1 -20 -9 c-17 -7 -17 -9 -2 -9
17 -1 24 -25 10 -34 -10 -5 11 1 35 10 11 4 9 -1 -7 -15 -13 -12 -20 -22 -15
-22 6 0 15 5 22 12 9 9 11 5 8 -20 -3 -28 -1 -31 12 -20 13 11 14 10 5 -7 -8
-15 -7 -23 4 -34 13 -12 14 -11 8 10 -4 16 -3 20 3 10 8 -11 10 -11 14 0 3 10
6 10 12 1 4 -7 2 -12 -3 -12 -15 0 -14 -37 1 -46 7 -5 8 -3 3 6 -5 9 -4 11 4
6 6 -4 9 -12 6 -17 -10 -14 5 -49 20 -49 7 0 15 5 17 12 3 9 6 9 12 0 4 -7 2
-12 -3 -12 -20 0 -12 -48 9 -55 11 -3 20 -11 20 -16 0 -6 5 -7 12 -3 7 5 8 3
2 -7 -12 -20 -14 -40 -3 -33 5 3 6 10 3 16 -4 7 -2 8 4 4 8 -5 9 -13 2 -25 -7
-14 -5 -24 9 -40 10 -11 22 -17 27 -13 4 4 2 -1 -5 -10 -15 -21 -26 -24 -15
-5 6 9 5 9 -8 0 -8 -7 -19 -9 -23 -5 -5 4 -5 1 -1 -6 4 -7 11 -10 16 -7 5 3
11 1 15 -5 3 -5 -1 -10 -9 -10 -20 0 -29 -17 -15 -26 7 -4 9 -3 6 3 -3 5 0 10
8 10 10 0 12 -4 5 -12 -6 -7 -5 -16 3 -25 9 -10 9 -11 0 -6 -9 5 -13 -2 -13
-23 0 -16 -4 -33 -10 -36 -13 -8 -13 -25 1 -25 5 0 7 5 3 12 -4 7 -3 8 4 4 6
-4 9 -13 6 -20 -3 -8 -1 -17 5 -21 8 -4 7 -13 -3 -27 -12 -16 -13 -26 -4 -42
10 -18 9 -19 -3 -9 -12 10 -15 8 -15 -7 0 -10 3 -17 7 -14 11 7 18 -22 9 -36
-5 -8 -6 -19 -2 -24 9 -16 10 -66 0 -60 -5 3 -5 11 -2 17 4 7 3 9 -1 4 -11 -9
-14 -48 -4 -42 4 3 10 -2 13 -11 3 -8 2 -12 -3 -9 -5 3 -12 1 -16 -5 -3 -5 0
-10 7 -10 14 0 17 -55 3 -68 -5 -4 -5 -1 0 7 5 9 4 12 -3 7 -6 -4 -9 -13 -6
-21 4 -8 9 -13 13 -10 4 2 8 -2 8 -10 0 -8 -4 -12 -8 -9 -4 2 -10 0 -14 -6 -3
-5 1 -10 9 -10 19 0 21 -16 4 -26 -7 -5 -8 -2 -3 7 5 8 4 11 0 6 -13 -12 -14
-48 -1 -38 13 11 14 -45 1 -57 -5 -4 -5 -1 0 7 5 9 4 12 -3 7 -6 -4 -9 -13 -6
-21 4 -8 9 -13 13 -10 4 2 8 -2 8 -10 0 -8 -4 -12 -8 -9 -4 2 -10 0 -14 -6 -3
-5 1 -10 9 -10 10 0 13 -6 9 -17 -5 -12 -3 -14 8 -8 11 6 12 5 1 -6 -6 -7 -12
-21 -12 -31 0 -10 -5 -18 -12 -18 -6 0 -2 -10 10 -23 23 -24 32 -51 10 -29 -7
7 -17 12 -22 12 -6 0 -3 -5 7 -11 9 -6 15 -14 12 -20 -4 -5 -2 -9 3 -9 6 0 12
7 16 15 6 18 -2 45 -15 45 -5 0 -9 4 -9 8 0 5 7 9 15 9 8 0 12 -4 9 -9 -3 -4
0 -8 5 -8 6 0 10 -3 10 -8 -4 -24 2 -42 13 -36 7 4 8 3 4 -5 -4 -6 -11 -9 -16
-6 -13 8 -3 -34 11 -51 7 -8 19 -12 27 -9 13 5 13 3 1 -12 -12 -15 -12 -16 5
-10 17 7 17 6 5 -9 -13 -16 -12 -16 11 -4 21 10 23 10 12 -1 -17 -18 -15 -34
2 -20 10 8 16 9 21 1 3 -6 11 -7 17 -4 6 4 5 -3 -2 -16 -11 -20 -10 -21 9 -15
12 3 21 2 21 -3 0 -6 -5 -12 -12 -14 -7 -3 -5 -7 6 -11 10 -4 15 -3 11 3 -3 6
-2 10 4 10 5 0 18 3 28 6 16 6 16 5 -2 -9 -16 -13 -18 -18 -7 -29 11 -11 12
-10 7 4 -5 12 -2 16 12 14 10 -2 24 1 31 7 11 9 17 -2 13 -25 0 -5 6 -8 14 -8
8 0 15 -4 15 -10 0 -5 5 -10 11 -10 5 0 7 5 4 10 -3 6 -1 10 4 10 6 0 11 -6
11 -12 0 -9 4 -8 10 2 8 13 10 13 10 1 0 -11 4 -9 15 5 10 13 13 14 10 3 -4
-10 0 -16 10 -16 8 0 15 4 15 9 0 9 29 6 49 -6 9 -6 12 -5 7 2 -3 6 -1 14 5
18 7 4 9 3 6 -2 -3 -6 -2 -16 4 -24 7 -13 9 -12 9 2 0 9 4 20 10 23 6 4 7 -1
3 -12 -3 -10 -3 -15 2 -11 4 4 17 2 29 -4 19 -10 20 -10 7 5 -13 16 -2 25 13
10 10 -10 37 -13 31 -3 -3 5 0 12 6 16 7 4 9 3 6 -2 -3 -6 -2 -16 4 -24 7 -13
9 -12 9 2 0 9 4 20 10 23 6 4 7 -1 3 -12 -3 -10 -3 -15 2 -11 4 4 17 2 29 -4
19 -10 20 -10 7 5 -13 16 -2 25 13 10 10 -10 37 -13 31 -3 -3 5 0 12 6 16 7 4
9 3 6 -2 -3 -6 -2 -16 4 -24 7 -13 9 -12 9 2 0 9 4 20 10 23 6 4 7 -1 3 -12
-3 -10 -3 -15 2 -11 4 4 17 2 29 -4 20 -11 20 -10 6 8 -8 10 -10 16 -6 12 5
-4 15 -3 23 4 11 8 12 7 7 -6 -7 -18 15 -19 28 -1 4 6 8 1 8 -10 0 -16 2 -17
9 -5 6 8 8 17 6 20 -2 4 2 7 10 7 12 0 12 -3 3 -16 -7 -9 -9 -13 -4 -9 5 4 18
2 30 -4 19 -10 19 -9 8 4 -10 13 -10 18 -1 24 7 4 9 3 6 -3 -4 -6 0 -13 8 -17
8 -3 15 0 15 7 0 8 4 6 10 -3 9 -13 10 -13 11 0 0 10 3 8 9 -5 l9 -20 0 20 c1
17 3 17 11 5 6 -10 10 -11 10 -3 0 13 34 13 46 0 4 -4 18 0 31 9 24 15 24 15
12 -8 -11 -20 -10 -21 3 -11 8 7 18 10 22 6 4 -4 4 1 0 12 -7 19 -7 19 13 3
17 -16 21 -16 39 -3 15 12 15 14 2 9 -12 -4 -16 -1 -13 13 2 10 4 20 4 22 1 2
10 -4 22 -15 11 -10 20 -14 19 -9 -5 22 1 27 16 15 12 -11 15 -11 12 1 -2 8 3
13 11 11 12 -3 12 0 2 12 -9 11 -9 16 0 22 7 4 9 3 6 -3 -4 -6 -1 -13 7 -16
10 -4 12 0 9 14 -3 11 0 19 6 19 7 0 9 5 5 12 -6 10 -5 10 8 1 12 -11 18 -9
33 7 10 11 21 17 26 15 4 -3 10 -1 14 4 3 6 -3 8 -15 6 -12 -2 -20 1 -20 10 0
8 6 12 14 9 18 -7 30 12 15 22 -8 5 -9 3 -4 -6 5 -9 4 -11 -4 -6 -9 6 -9 11 0
22 13 15 34 20 24 5 -3 -5 -1 -12 4 -16 6 -3 8 3 6 14 -2 11 6 32 18 48 12 15
16 24 9 19 -6 -4 -12 -2 -12 3 0 6 4 11 10 11 5 0 7 7 4 15 -4 8 -11 12 -17 8
-7 -4 -2 6 11 21 24 31 28 46 11 46 -5 0 -7 -6 -3 -12 5 -9 2 -9 -9 1 -19 15
-23 26 -6 15 8 -5 10 1 7 20 -4 19 -2 24 6 17 8 -7 12 -4 12 9 0 10 -3 17 -7
14 -4 -2 -10 3 -13 12 -3 8 -2 12 3 9 5 -3 12 -1 16 5 3 5 -2 10 -11 10 -16 0
-16 1 2 16 10 8 15 13 9 11 -5 -3 -17 2 -25 11 -13 14 -12 15 2 10 10 -4 19
-1 22 8 3 9 1 12 -4 9 -6 -3 -10 -3 -11 2 -4 46 -2 76 5 80 5 4 6 0 1 -8 -5
-8 -4 -11 0 -6 11 9 14 47 4 47 -4 0 -10 -6 -13 -12 -3 -7 -3 -3 -1 9 3 12 1
24 -5 28 -7 4 -5 13 4 27 12 16 13 26 4 42 -10 18 -9 19 3 9 12 -10 15 -8 15
7 0 10 -3 17 -7 14 -11 -7 -18 22 -9 36 5 8 6 19 2 24 -9 16 -10 66 0 60 5 -3
5 -11 2 -17 -4 -7 -3 -9 1 -4 11 9 14 48 4 42 -4 -3 -10 2 -13 11 -3 8 -2 12
3 9 5 -3 12 -1 15 4 4 5 -2 12 -11 14 -15 4 -15 5 2 6 16 1 17 3 6 10 -13 8
-13 12 0 27 13 15 12 16 -11 10 -17 -5 -21 -4 -11 2 8 6 10 15 6 22 -6 9 -4
11 4 5 10 -5 11 2 7 30 -5 27 -3 34 6 29 9 -5 9 -3 -1 9 -14 18 -26 23 -16 8
3 -5 0 -13 -7 -17 -7 -4 -10 -4 -6 1 4 4 3 16 -2 25 -8 15 -6 17 13 14 22 -5
22 -4 -1 6 -28 12 -46 30 -50 50 -6 23 -23 40 -35 33 -6 -3 -7 -1 -3 6 4 6 12
9 17 6 5 -4 9 -1 9 4 0 6 -7 11 -15 11 -8 0 -15 5 -15 11 0 5 4 8 8 5 5 -3 9
1 9 9 0 9 -4 11 -11 6 -12 -9 -49 -11 -40 -2 3 3 10 6 15 6 5 0 8 4 7 10 -2 5
-5 9 -8 8 -34 -12 -43 -14 -35 -6 6 4 11 14 13 22 3 12 1 12 -14 0 -16 -13
-16 -12 -4 11 l13 25 -22 -19 c-16 -15 -20 -16 -16 -5 3 9 -2 22 -11 30 -15
12 -16 12 -10 0 6 -9 5 -12 -5 -9 -8 3 -13 11 -12 17 2 6 0 10 -5 10 -18 -3
-31 2 -35 14 -2 6 -3 4 -2 -5 2 -10 -1 -18 -6 -18 -5 0 -9 4 -9 9 0 14 -29 21
-36 9 -4 -6 -3 -8 3 -5 6 4 14 0 17 -8 4 -12 2 -13 -13 -6 -10 6 -22 7 -26 3
-5 -4 -5 1 -2 10 3 10 1 20 -5 24 -7 4 -8 3 -4 -4 4 -7 1 -12 -9 -12 -9 0 -14
-4 -11 -8 3 -5 -1 -9 -9 -9 -8 0 -12 4 -9 9 3 4 0 8 -6 8 -6 0 -8 5 -4 12 4 7
3 8 -5 4 -6 -4 -9 -12 -6 -17 4 -5 2 -9 -4 -9 -5 0 -14 7 -19 16 -8 14 -10 14
-15 1 -4 -10 -13 -13 -26 -10 -14 3 -21 0 -21 -8 -1 -8 -7 -3 -15 11 l-14 25
-1 -24 c0 -24 0 -24 -16 -5 -8 10 -13 14 -10 7 4 -6 2 -14 -4 -18 -5 -3 -10 1
-10 9 0 10 -6 13 -17 9 -12 -5 -14 -3 -8 8 7 11 6 12 -6 2 -8 -6 -27 -10 -42
-9 -22 3 -27 0 -22 -12 5 -13 3 -13 -11 -1 -18 15 -47 22 -39 9 3 -4 -2 -10
-10 -14 -8 -3 -17 0 -21 6 -4 7 -3 8 4 4 8 -5 10 -1 5 9 -3 9 -9 12 -12 7 -3
-5 -19 -8 -34 -7 -23 3 -27 0 -22 -13 5 -13 1 -12 -16 4 -12 10 -19 13 -15 7
4 -7 4 -13 -1 -14 -4 0 -16 -2 -26 -4 -9 -2 -15 0 -12 5 3 4 -2 11 -11 14 -8
3 -12 2 -9 -4 3 -6 2 -10 -4 -10 -5 0 -14 7 -19 16 -8 15 -10 15 -15 0 -4 -10
-13 -13 -23 -9 -9 3 -20 0 -25 -8 -7 -11 -9 -10 -9 5 0 20 0 20 -15 0 -14 -18
-14 -18 -10 6 4 22 3 23 -9 8 -9 -12 -16 -14 -23 -7 -7 7 -15 6 -24 -4 -12
-13 -16 -12 -31 6 -10 11 -18 17 -18 14 0 -4 -18 3 -40 14 -22 12 -40 23 -40
25 0 5 33 -8 48 -19 7 -5 15 -7 19 -3 3 3 1 6 -5 6 -6 0 -9 8 -6 18 5 14 4 14
-4 3 -9 -12 -17 -8 -44 23 -18 21 -33 43 -33 49 -1 7 -6 11 -12 10 -13 -3 -12
15 1 36 7 10 6 12 -4 6 -8 -5 -11 -3 -8 6 3 8 11 13 17 11 7 -1 10 2 7 7 -4 5
-15 8 -26 6 -18 -3 -25 6 -21 28 1 5 -3 6 -9 2 -14 -9 -13 8 3 24 10 10 9 12
-3 9 -8 -2 -14 3 -12 10 1 8 -2 11 -8 7 -8 -5 -8 -11 0 -20 8 -10 8 -15 -1
-21 -7 -4 -9 -3 -6 3 4 5 -3 19 -13 31 -22 24 -27 40 -7 24 9 -8 17 -8 27 0
13 8 13 9 -1 5 -20 -7 -52 30 -44 50 4 13 3 14 -10 3 -8 -7 -12 -17 -8 -23 3
-5 1 -7 -5 -4 -5 4 -8 17 -4 29 3 14 2 19 -6 14 -7 -4 -12 -2 -12 4 0 6 -5 8
-12 4 -7 -5 -8 -3 -3 6 5 7 -2 20 -16 34 -14 11 -20 18 -15 14 15 -12 23 -10
23 7 0 8 -4 12 -9 9 -4 -3 -8 0 -8 6 0 6 -4 8 -10 5 -6 -3 -10 -2 -10 4 0 5 6
12 13 14 6 3 1 6 -13 7 -14 1 -19 4 -12 7 6 2 12 9 12 14 0 6 -4 7 -10 4 -5
-3 -10 0 -10 7 0 9 -3 9 -10 -2 -5 -8 -10 -10 -10 -4 0 5 6 16 13 23 10 11 9
12 -1 7 -9 -6 -11 -1 -8 18 3 15 1 24 -5 21 -5 -4 -14 5 -21 19 -6 14 -17 26
-25 26 -9 0 -8 -5 5 -19 40 -45 46 -54 32 -49 -8 2 -18 13 -24 23 -6 11 -17
25 -25 31 -12 9 -11 13 5 22 18 11 18 11 -3 12 -16 0 -21 4 -17 15 4 8 11 12
18 8 6 -4 5 1 -3 10 -13 17 -36 14 -26 -4 4 -5 1 -9 -4 -9 -6 0 -11 9 -11 20
0 11 5 20 12 20 6 0 3 6 -7 14 -11 8 -26 11 -34 8 -10 -4 -13 -1 -8 11 7 17
-15 41 -28 29 -5 -4 -5 -1 -1 6 4 7 2 12 -5 12 -7 0 -9 3 -6 7 9 9 58 -37 51
-48 -3 -5 2 -6 11 -3 13 5 12 9 -7 26 -13 11 -22 25 -20 30 1 5 -2 7 -7 4 -5
-4 -16 0 -24 8 -8 8 -18 12 -22 8 -5 -4 -5 -1 -1 6 6 10 11 10 22 1 12 -10 13
-9 8 5 -4 12 -14 16 -27 12 -18 -4 -17 -2 4 21 l24 25 -40 -22 c-22 -12 -34
-16 -27 -8 6 8 9 18 5 22 -4 4 1 4 12 1 15 -4 15 -3 -2 6 -13 7 -23 18 -23 26
0 12 -13 18 -35 13 -5 -1 -7 2 -3 5 4 4 3 17 -3 29 -10 21 -10 21 6 1 9 -11
20 -19 25 -18 5 2 12 -6 15 -17 4 -11 11 -20 17 -20 6 0 4 10 -5 23 -8 12 -20
21 -26 20 -8 -2 -20 19 -27 50 -1 4 -2 9 -3 12 0 3 -11 0 -23 -6 -23 -12 -23
-12 -4 10 11 11 16 24 13 28 -4 3 -7 1 -7 -5 0 -6 -8 -10 -18 -9 -23 1 -27 37
-4 38 10 0 6 5 -10 11 -16 5 -28 14 -28 19 0 5 -8 9 -17 9 -15 0 -14 2 3 16
10 8 13 13 7 9 -14 -7 -17 6 -5 21 4 5 5 8 3 7 -2 -2 -11 3 -20 10 -14 11 -14
10 -2 -5 7 -10 9 -18 3 -18 -17 0 -23 30 -7 36 8 4 15 10 15 16 0 5 -4 7 -9 4
-12 -8 -43 29 -34 39 5 4 2 4 -6 0 -11 -6 -13 -4 -7 10 5 15 4 16 -9 5 -9 -7
-18 -10 -22 -6 -3 3 -1 6 5 6 7 0 12 4 12 10 0 5 -8 7 -17 4 -14 -5 -15 -4 -4
4 11 8 11 11 0 16 -8 3 -4 3 9 0 12 -3 22 -1 22 5 0 6 -4 11 -10 11 -5 0 -10
5 -10 11 0 6 6 9 13 6 17 -6 10 43 -7 56 -7 5 -3 7 10 4 13 -3 21 1 21 9 0 7
-4 11 -9 8 -4 -3 -8 4 -8 16 0 14 4 19 13 14 9 -6 9 -5 0 7 -14 18 -20 85 -9
96 5 5 6 2 1 -6 -5 -9 -4 -12 3 -7 6 4 9 13 6 21 -4 8 -10 12 -16 9 -5 -3 -4
3 3 15 8 11 16 17 19 13 7 -10 37 -9 47 2 5 5 2 6 -6 1 -9 -5 -12 -4 -7 3 10
17 26 15 26 -4 0 -8 5 -12 10 -9 6 4 8 10 6 14 -3 4 1 8 9 8 8 0 12 -4 10 -8
-3 -4 2 -9 10 -13 8 -3 17 0 21 6 5 7 2 8 -6 3 -7 -5 -11 -4 -7 1 4 7 34 9 80
5 5 -1 5 -5 2 -11 -3 -5 0 -7 9 -4 9 3 12 12 8 22 -5 14 -4 15 10 2 9 -8 14
-19 11 -25 -2 -5 3 -1 11 9 15 18 16 18 16 2 0 -9 5 -14 10 -11 6 4 8 11 5 16
-3 5 1 6 9 3 9 -3 14 -9 11 -13 -6 -10 33 -7 42 4 5 4 3 5 -4 1 -6 -3 -14 -3
-17 2 -6 9 50 9 60 0 3 -4 18 -2 34 2 23 7 28 5 23 -6 -4 -10 0 -12 11 -8 9 3
14 9 12 13 -2 3 7 7 21 8 16 0 21 -2 14 -7 -9 -5 -6 -9 8 -13 12 -3 24 0 28 5
4 7 1 8 -8 3 -8 -5 -11 -5 -7 0 12 13 68 12 57 -1 -10 -13 26 -12 38 1 5 4 2
5 -6 0 -9 -5 -12 -4 -7 3 10 17 26 15 26 -4 0 -8 5 -12 10 -9 6 4 8 10 6 14
-3 4 1 8 9 8 8 0 12 -4 10 -8 -3 -4 2 -9 10 -13 8 -3 17 0 21 6 5 7 2 8 -6 3
-7 -5 -11 -4 -7 1 4 7 34 9 80 5 5 -1 6 -5 3 -9 -2 -4 4 -8 14 -8 15 0 17 3 7
15 -10 12 -9 13 9 3 16 -9 26 -8 42 4 14 9 23 11 27 4 4 -6 16 -8 28 -5 12 2
16 2 10 -1 -7 -3 -13 -9 -13 -13 0 -10 38 -7 47 4 5 4 2 5 -6 0 -8 -5 -12 -4
-8 1 4 7 34 9 80 5 5 -1 5 -5 2 -11 -3 -5 0 -7 9 -4 9 3 12 12 8 22 -5 14 -4
15 10 2 9 -8 14 -18 11 -22 -2 -4 3 -5 11 -2 9 3 13 10 10 15 -3 5 2 6 10 3 9
-3 14 -9 12 -13 -3 -4 4 -7 14 -7 15 0 17 3 7 15 -10 12 -9 13 9 3 16 -9 26
-8 42 4 14 9 23 11 27 4 4 -6 16 -8 28 -5 12 2 16 2 10 -1 -7 -3 -13 -9 -13
-13 0 -10 38 -7 47 4 5 4 2 5 -6 0 -8 -5 -12 -4 -8 1 4 7 34 9 80 5 5 -1 5 -5
2 -11 -3 -5 0 -7 9 -4 9 3 12 12 8 22 -5 14 -4 15 10 2 9 -8 14 -18 11 -22 -2
-4 3 -5 11 -2 9 3 13 10 10 15 -3 5 2 6 10 3 9 -3 14 -9 12 -13 -3 -4 4 -7 14
-7 15 0 17 3 7 15 -10 12 -9 13 10 3 12 -7 24 -17 27 -24 3 -7 4 -4 3 6 -1 10
4 20 11 22 7 1 8 0 3 -2 -6 -3 -4 -16 7 -32 9 -14 12 -23 6 -19 -7 4 -14 0
-18 -8 -3 -8 0 -17 6 -21 7 -5 8 -2 3 7 -5 8 -4 11 0 6 11 -9 14 -48 4 -42 -4
3 -10 -3 -13 -12 -4 -10 -4 -14 0 -11 3 4 13 1 20 -7 18 -18 18 -31 0 -16 -11
9 -15 8 -20 -4 -3 -9 -2 -14 3 -11 5 3 12 -1 15 -10 3 -9 2 -12 -5 -8 -7 4 -9
-6 -5 -31 5 -27 3 -34 -6 -29 -10 6 -10 5 -1 -8 7 -8 9 -19 5 -23 -4 -5 -1 -5
6 -1 7 4 10 11 7 16 -3 5 0 12 7 16 7 4 10 4 6 -1 -4 -4 -3 -16 3 -26 7 -14 7
-19 -2 -17 -6 2 -14 -4 -16 -12 -3 -11 -2 -12 4 -2 7 10 15 8 33 -8 19 -16 20
-21 7 -26 -8 -3 -18 -12 -21 -20 -4 -12 -1 -11 18 1 22 14 23 14 23 -2 0 -36
3 -43 18 -43 8 0 15 -5 15 -11 0 -5 -4 -8 -8 -5 -5 3 -9 -1 -9 -9 0 -9 4 -11
11 -6 15 11 46 10 46 -2 0 -5 -7 -7 -15 -4 -8 4 -17 1 -21 -5 -4 -6 -3 -8 4
-4 6 3 13 2 17 -4 4 -7 13 -7 26 1 20 10 20 10 2 -17 -10 -16 -12 -25 -5 -21
7 5 12 3 12 -3 0 -8 6 -8 20 0 11 6 17 16 14 22 -4 7 -3 8 4 4 8 -4 8 -15 2
-31 -7 -19 -6 -23 5 -18 8 3 13 9 10 13 -12 19 16 19 34 1 15 -15 22 -16 32
-8 9 9 9 7 -1 -6 -11 -15 -11 -20 0 -30 9 -8 11 -8 7 -1 -4 7 0 15 9 18 24 9
27 7 14 -9 -11 -13 -10 -14 4 -9 9 3 16 11 16 18 1 6 8 0 16 -14 15 -25 15
-25 10 -2 -5 23 -4 24 16 5 12 -10 18 -13 15 -6 -4 6 -3 14 3 18 5 3 10 -1 10
-9 0 -10 6 -13 17 -9 12 5 14 3 8 -8 -7 -11 -6 -12 6 -2 8 6 27 10 42 9 22 -3
27 0 22 12 -4 12 0 11 16 -4 12 -10 19 -13 15 -6 -6 10 -1 11 18 6 18 -4 26
-2 26 7 1 8 7 3 15 -11 l14 -25 1 24 c0 24 0 24 16 5 8 -10 13 -14 10 -7 -4 6
-2 14 4 18 5 3 10 -1 10 -10 0 -9 5 -13 11 -10 6 4 26 7 45 7 19 0 34 5 34 12
1 6 7 0 15 -14 14 -25 14 -25 15 -2 0 12 5 22 11 22 5 0 7 -4 4 -10 -9 -14 28
-12 44 3 11 10 13 9 8 -4 -3 -9 0 -16 9 -16 7 0 11 4 8 9 -3 5 6 6 20 2 18 -4
26 -2 26 7 1 8 7 3 15 -11 l14 -25 1 24 c0 24 0 24 16 5 8 -10 13 -14 10 -7
-4 6 -2 14 4 18 5 3 10 -1 10 -9 0 -10 6 -13 17 -9 12 5 14 3 8 -8 -8 -12 -6
-12 8 0 9 7 23 11 32 8 8 -4 17 -1 21 5 5 7 2 8 -7 3 -11 -6 -12 -5 -2 5 10
11 16 9 33 -11 19 -21 20 -22 11 -3 -8 17 -7 25 7 35 15 12 15 12 6 -1 -9 -12
-9 -18 2 -28 9 -8 14 -9 14 -2 0 6 4 9 8 6 5 -3 9 1 9 9 0 12 -4 12 -16 3 -13
-10 -13 -9 1 6 15 17 44 14 34 -3 -3 -4 1 -8 9 -8 10 0 12 4 5 12 -6 7 -2 15
12 24 11 7 17 8 14 3 -3 -6 1 -9 10 -8 9 1 20 10 25 19 6 10 16 14 27 10 14
-5 13 -3 -3 13 -12 10 -15 15 -8 10 8 -5 13 -4 13 2 0 6 7 9 15 6 8 -4 15 -1
15 5 0 6 8 8 18 5 13 -5 14 -4 3 4 -8 6 -21 8 -30 5 -13 -4 -13 -2 1 10 10 8
14 17 11 21 -4 4 6 2 22 -3 26 -10 28 -9 13 3 -24 18 -23 24 5 21 21 -3 23 1
19 24 -3 14 -10 29 -16 33 -6 4 0 7 14 6 14 -1 32 -6 40 -12 8 -6 7 -1 -4 11
-10 13 -22 21 -26 18 -4 -2 -7 3 -7 11 0 10 4 11 10 5 7 -7 16 -2 28 17 16 26
16 28 -5 51 l-21 24 25 -13 c21 -11 23 -11 14 1 -14 17 -25 61 -14 54 4 -3 11
2 14 11 8 21 8 24 -5 24 -5 0 -7 -5 -3 -12 4 -7 3 -8 -4 -4 -6 4 -9 13 -6 20
3 8 1 17 -5 21 -8 4 -7 13 3 27 12 16 13 26 4 42 -10 18 -9 19 3 9 12 -10 15
-8 15 7 0 10 -3 17 -7 14 -11 -7 -18 22 -9 36 5 8 6 19 2 24 -9 16 -10 66 0
60 5 -3 5 -11 2 -17 -4 -7 -3 -9 1 -4 11 9 14 48 4 42 -4 -3 -10 2 -13 11 -3
8 -2 12 3 9 5 -3 12 -1 16 5 3 5 -1 10 -10 10 -12 0 -14 4 -6 19 6 10 7 21 4
25 -10 10 -11 66 -1 60 5 -3 5 -11 2 -17 -4 -7 -3 -9 1 -4 11 9 14 48 4 42 -4
-3 -10 2 -13 11 -3 8 -2 12 3 9 5 -3 12 -1 16 5 3 5 -2 10 -12 11 -10 0 -13 3
-6 6 10 3 10 10 1 26 -10 19 -9 20 3 10 12 -10 15 -8 15 7 0 10 -3 17 -7 14
-12 -7 -16 19 -8 49 6 22 4 27 -9 28 -12 0 -11 3 6 9 12 5 22 12 22 15 0 4 -4
4 -9 1 -5 -3 -14 1 -21 9 -11 13 -10 14 3 10 8 -4 18 -1 23 6 4 7 3 10 -4 5
-6 -4 -11 1 -11 11 -1 39 -5 50 -17 50 -7 0 -11 -3 -9 -7 2 -3 -1 -12 -6 -20
-8 -12 -9 -11 -7 5 2 11 -2 19 -8 18 -6 -1 -11 5 -11 12 0 11 4 12 14 4 9 -8
13 -8 13 -1 0 6 -9 16 -20 22 -17 9 -18 14 -9 32 7 13 7 18 0 14 -10 -7 -34
27 -25 36 3 3 -2 8 -10 11 -9 4 -18 2 -21 -3 -8 -13 -25 -13 -25 1 0 5 5 7 10
4 6 -3 10 1 10 10 0 9 -4 13 -10 10 -5 -3 -10 -1 -10 5 0 6 -5 8 -11 4 -7 -4
-7 1 1 16 12 22 12 22 -11 7 -17 -12 -26 -14 -36 -6 -7 6 -20 8 -29 5 -14 -5
-15 -4 -4 9 10 12 16 13 26 4 8 -6 14 -7 14 -3 0 5 -9 15 -21 22 -16 10 -19
10 -13 1 5 -9 2 -10 -9 -6 -10 4 -17 1 -17 -5 0 -6 -3 -8 -6 -5 -4 4 -2 12 4
20 9 10 4 12 -25 9 -23 -3 -38 0 -44 9 -7 11 -9 9 -10 -6 l0 -20 -9 20 c-6 13
-9 15 -9 5 -1 -13 -2 -13 -12 0 -8 11 -12 12 -16 3 -2 -7 -9 -13 -14 -13 -6 0
-8 4 -4 9 3 5 1 13 -5 16 -6 4 -10 3 -9 -2 3 -20 -2 -27 -11 -13 -9 13 -10 13
-10 0 0 -13 -1 -13 -11 0 -8 11 -12 12 -16 3 -2 -7 -9 -13 -14 -13 -6 0 -8 4
-4 9 3 5 1 13 -5 16 -6 4 -10 3 -9 -2 3 -20 -2 -27 -11 -13 -9 13 -10 13 -10
0 0 -13 -1 -13 -11 0 -8 11 -12 12 -16 3 -2 -7 -9 -13 -14 -13 -6 0 -8 4 -4 9
3 5 1 13 -5 16 -6 4 -10 3 -9 -2 3 -20 -2 -27 -11 -13 -9 13 -10 13 -10 0 0
-13 -1 -13 -11 0 -8 11 -12 12 -16 3 -2 -7 -9 -13 -14 -13 -6 0 -8 4 -4 9 3 5
1 13 -5 16 -6 4 -10 3 -9 -2 3 -20 -2 -27 -11 -13 -9 13 -10 13 -10 0 0 -13
-1 -13 -11 0 -8 11 -12 12 -16 3 -2 -7 -9 -13 -14 -13 -6 0 -8 4 -4 9 3 5 1
13 -5 16 -6 4 -10 3 -9 -2 3 -20 -2 -27 -11 -13 -9 13 -10 13 -10 0 0 -13 -1
-13 -11 0 -8 11 -12 12 -16 3 -2 -7 -9 -13 -14 -13 -6 0 -8 4 -4 9 3 5 0 13
-6 17 -7 4 -9 3 -5 -4 3 -6 2 -13 -4 -17 -5 -3 -10 0 -10 7 0 9 -3 9 -10 -2
-5 -8 -10 -10 -10 -4 0 7 -9 14 -20 17 -11 3 -18 2 -15 -3 3 -4 -2 -13 -10
-20 -13 -11 -14 -10 -9 6 4 10 4 16 -1 12 -4 -4 -17 -2 -29 4 -19 10 -20 10
-7 -5 13 -16 2 -25 -13 -10 -10 10 -37 13 -31 3 3 -5 0 -12 -6 -16 -7 -4 -9
-3 -6 2 3 6 2 16 -4 24 -7 13 -9 12 -9 -2 0 -9 -4 -20 -10 -23 -5 -3 -7 0 -4
8 3 8 -2 14 -11 14 -9 0 -14 -6 -11 -13 3 -8 0 -11 -9 -7 -8 3 -12 10 -9 15 4
6 -4 3 -17 -5 -26 -16 -58 -15 -69 3 -5 8 -9 6 -14 -6 -4 -10 -4 -15 0 -12 3
4 13 0 21 -8 8 -8 20 -11 26 -7 7 3 9 2 4 -2 -9 -11 -68 -14 -61 -4 2 4 -1 11
-7 15 -7 4 -9 3 -6 -3 4 -6 -1 -19 -9 -29 -9 -10 -13 -13 -9 -6 3 6 1 12 -5
12 -6 0 -13 -7 -16 -15 -4 -8 -12 -15 -19 -15 -7 0 -15 -7 -19 -15 -3 -8 -9
-15 -13 -14 -20 3 -24 -2 -12 -18 13 -15 12 -15 -8 -5 -19 10 -20 9 -16 -9 5
-18 3 -20 -14 -11 -16 9 -19 7 -19 -13 0 -13 4 -21 8 -19 5 3 6 10 3 15 -3 5
1 6 10 2 14 -5 11 -10 -14 -25 -17 -11 -31 -22 -31 -25 0 -2 4 -2 9 1 5 3 11
0 14 -8 4 -11 -1 -13 -18 -10 -20 3 -23 1 -18 -12 4 -11 2 -15 -5 -10 -6 3
-14 2 -17 -4 -4 -6 -3 -9 2 -8 4 2 8 -1 8 -7 0 -5 -4 -9 -9 -7 -5 2 -5 -3 1
-10 11 -13 10 -30 -2 -60 -4 -11 -3 -18 5 -18 6 0 8 5 4 13 -5 8 -2 8 9 -2 19
-15 23 -26 6 -15 -8 5 -10 -1 -7 -20 4 -19 2 -24 -6 -17 -8 7 -12 4 -12 -9 0
-10 4 -17 7 -14 4 2 10 0 13 -5 3 -5 0 -11 -8 -14 -10 -4 -13 -18 -10 -45 3
-37 2 -39 -21 -34 -14 2 -33 -2 -42 -9 -14 -12 -16 -12 -11 2 4 9 1 16 -8 16
-7 0 -11 -4 -8 -9 3 -5 -6 -6 -20 -2 -18 4 -26 2 -26 -7 -1 -8 -7 -3 -15 11
l-14 25 -1 -24 c0 -24 0 -24 -16 -5 -8 10 -13 14 -10 7 4 -6 2 -14 -4 -18 -5
-3 -10 1 -10 10 0 9 -5 13 -11 10 -6 -4 -26 -7 -45 -7 -19 0 -34 -5 -34 -11
-1 -7 -7 -1 -15 13 -14 25 -14 25 -15 3 0 -13 -5 -23 -11 -23 -5 0 -7 5 -4 10
9 14 -28 12 -44 -2 -11 -11 -13 -10 -8 3 3 9 0 16 -9 16 -7 0 -11 -4 -8 -9 3
-5 -6 -6 -20 -2 -18 4 -26 2 -26 -7 -1 -8 -7 -3 -15 11 l-14 25 -1 -24 c0 -24
0 -24 -16 -5 -8 10 -13 14 -10 7 4 -6 2 -14 -4 -18 -5 -3 -10 1 -10 10 0 9 -5
13 -11 10 -6 -4 -26 -7 -45 -7 -19 0 -34 -5 -34 -11 -1 -7 -7 -1 -15 13 -14
25 -14 25 -15 3 0 -13 -5 -23 -11 -23 -5 0 -7 5 -4 10 9 14 -28 12 -44 -2 -11
-11 -13 -10 -9 3 4 11 -1 15 -17 15 -13 0 -22 -3 -19 -7 2 -4 -3 -9 -11 -13
-8 -3 -17 0 -21 6 -4 7 -3 8 4 4 8 -5 10 -1 5 9 -3 9 -9 12 -12 7 -3 -5 -19
-8 -34 -7 -23 3 -27 0 -22 -13 5 -13 1 -12 -16 4 -12 10 -19 13 -15 7 4 -7 4
-13 -1 -14 -4 0 -16 -2 -26 -4 -9 -2 -15 0 -12 5 3 4 -2 11 -11 14 -8 3 -12 2
-9 -4 3 -6 2 -10 -4 -10 -5 0 -14 7 -19 16 -8 14 -10 14 -15 1 -4 -10 -13 -13
-26 -10 -14 3 -21 0 -21 -8 -1 -8 -7 -3 -15 11 l-14 25 -1 -24 c0 -24 0 -24
-16 -5 -8 10 -13 14 -10 7 4 -6 2 -14 -4 -18 -5 -3 -10 1 -10 9 0 10 -6 13
-17 9 -12 -5 -14 -3 -8 8 7 11 6 12 -6 2 -8 -6 -27 -10 -42 -9 -22 3 -27 0
-22 -12 5 -13 3 -13 -11 -1 -18 15 -47 22 -39 9 3 -4 -2 -10 -10 -14 -8 -3
-17 0 -21 6 -4 7 -3 8 4 4 8 -5 10 -1 5 9 -3 9 -9 12 -12 7 -3 -5 -19 -8 -34
-7 -23 3 -27 0 -22 -13 5 -13 1 -12 -16 4 -12 10 -19 13 -15 7 4 -7 4 -14 -1
-14 -35 -6 -52 -5 -47 2 2 4 12 5 22 2 9 -3 14 -3 10 1 -3 4 -18 9 -33 10 -20
3 -25 0 -20 -12 4 -12 0 -11 -16 4 -12 10 -19 13 -15 7 4 -7 2 -13 -3 -13 -6
0 -11 7 -11 15 0 8 -5 15 -11 15 -5 0 -7 -6 -3 -12 4 -7 3 -10 -1 -5 -15 14
-13 46 3 39 11 -4 10 2 -4 24 -13 21 -14 26 -3 17 12 -10 15 -8 15 7 0 10 -3
17 -7 14 -12 -7 -16 19 -8 49 6 22 4 27 -9 28 -12 0 -11 3 6 9 12 5 22 12 22
15 0 4 -4 4 -9 1 -5 -3 -14 1 -21 9 -11 13 -10 14 3 10 8 -4 18 -1 23 6 4 7 3
10 -4 5 -6 -4 -11 1 -11 11 -1 39 -5 50 -17 50 -7 0 -11 -3 -9 -7 2 -3 -1 -12
-6 -20 -8 -12 -9 -11 -7 5 2 11 -2 19 -8 18 -6 -1 -11 5 -11 12 0 11 4 12 14
4 9 -8 13 -8 13 -1 0 6 -8 16 -19 21 -13 7 -17 18 -14 38 4 27 4 27 -11 9 -9
-11 -16 -16 -17 -10 -2 29 -9 49 -19 52 -5 2 -8 8 -4 13 3 5 2 9 -3 8 -21 -4
-34 2 -27 12 4 8 -1 9 -17 5 -13 -3 -18 -3 -11 0 14 7 17 44 2 44 -5 0 -7 -7
-3 -16 5 -14 3 -15 -13 -6 -15 8 -24 7 -39 -6 -19 -16 -19 -16 -5 3 8 11 20
23 25 27 18 13 -8 9 -37 -6 -33 -17 -36 -11 -7 13 21 17 21 17 1 17 -11 0 -18
-4 -16 -8 7 -11 -8 -10 -26 2 -12 8 -12 10 -1 10 8 0 12 3 9 6 -4 3 -17 -2
-31 -11 -19 -12 -27 -13 -33 -4 -5 8 -3 10 7 4 12 -8 12 -6 0 8 -13 16 -36 14
-26 -3 3 -5 0 -12 -6 -16 -7 -4 -9 -3 -5 4 3 6 2 13 -3 16 -5 4 -12 2 -16 -3
-3 -5 -14 -9 -25 -8 -10 1 -17 4 -14 8 2 4 -3 9 -11 12 -9 4 -12 1 -9 -7 3 -8
0 -17 -6 -21 -6 -3 -10 -3 -9 2 4 22 -2 25 -16 7 -15 -18 -15 -18 -8 0 4 13 3
17 -4 13 -6 -4 -14 -1 -16 5 -3 8 -6 6 -6 -4 -1 -10 -6 -18 -12 -18 -5 0 -7 6
-3 13 5 7 0 6 -11 -3 -10 -8 -16 -10 -12 -4 4 7 0 14 -8 17 -9 4 -12 1 -9 -7
3 -8 0 -17 -6 -21 -6 -3 -10 -3 -9 2 4 22 -2 25 -16 7 -15 -18 -15 -18 -8 0 4
13 3 17 -4 13 -6 -4 -14 -1 -16 5 -3 8 -6 6 -6 -4 -1 -10 -6 -18 -12 -18 -5 0
-7 6 -3 13 5 7 0 6 -11 -3 -10 -8 -16 -10 -12 -4 4 7 0 14 -8 17 -9 4 -12 1
-9 -7 3 -8 0 -17 -6 -21 -6 -3 -10 -3 -9 2 4 22 -2 25 -16 7 -15 -18 -15 -18
-8 0 4 13 3 17 -4 13 -6 -4 -14 -1 -16 5 -3 8 -6 6 -6 -4 -1 -10 -6 -18 -12
-18 -5 0 -7 6 -3 13 5 7 0 6 -11 -3 -10 -8 -16 -10 -12 -4 4 7 0 14 -8 17 -9
4 -12 1 -9 -7 3 -8 0 -17 -6 -21 -6 -3 -10 -3 -9 2 4 22 -2 25 -16 7 -15 -18
-15 -18 -8 0 4 13 3 17 -4 13 -6 -4 -14 -1 -16 5 -3 8 -6 6 -6 -4 -1 -10 -6
-18 -12 -18 -5 0 -7 6 -3 13 5 7 0 6 -11 -3 -10 -8 -16 -10 -12 -4 4 7 0 14
-8 17 -9 4 -12 1 -9 -7 3 -8 0 -17 -7 -22 -7 -4 -10 -3 -5 4 3 6 2 13 -4 17
-5 3 -10 0 -10 -7 0 -9 -3 -9 -10 2 -5 8 -10 11 -10 5 0 -5 -5 -3 -10 5 -8 12
-10 12 -11 -5 0 -12 -3 -15 -6 -7 -4 10 -9 9 -19 -5 -11 -14 -13 -14 -9 -2 4
10 0 16 -10 16 -9 0 -14 -6 -11 -13 3 -8 0 -11 -9 -8 -8 3 -16 13 -18 22 -4
15 -5 15 -6 0z m14 -48 c3 -6 -1 -7 -9 -4 -18 7 -21 14 -7 14 6 0 13 -4 16
-10z m3858 -85 c4 -8 3 -16 -1 -19 -4 -3 -9 4 -9 15 -2 23 3 25 10 4z m-2790
-140 c4 -8 3 -16 -1 -19 -4 -3 -9 4 -9 15 -2 23 3 25 10 4z m1542 5 c-3 -5
-11 -10 -16 -10 -6 0 -7 5 -4 10 3 6 11 10 16 10 6 0 7 -4 4 -10z m1338 -5 c4
-8 3 -16 -1 -19 -4 -3 -9 4 -9 15 -2 23 3 25 10 4z m-1358 -34 c3 -5 2 -12 -3
-15 -5 -3 -9 1 -9 9 0 17 3 19 12 6z m-9 -197 c0 -13 -2 -22 -5 -19 -3 3 -6
17 -7 31 0 13 2 22 5 19 3 -3 6 -17 7 -31z m-1302 -42 c3 -5 -1 -9 -9 -9 -8 0
-15 4 -15 9 0 4 4 8 9 8 6 0 12 -4 15 -8z m140 0 c3 -5 -1 -9 -9 -9 -8 0 -12
4 -9 9 3 4 7 8 9 8 2 0 6 -4 9 -8z m340 0 c3 -5 -1 -9 -9 -9 -8 0 -15 4 -15 9
0 4 4 8 9 8 6 0 12 -4 15 -8z m2200 -543 c-3 -5 -10 -7 -15 -3 -5 3 -7 10 -3
15 3 5 10 7 15 3 5 -3 7 -10 3 -15z m-2853 -155 c12 -14 11 -16 -4 -13 -10 2
-17 7 -15 11 2 4 -6 14 -17 23 -20 16 -20 16 1 6 11 -5 27 -17 35 -27z m-1311
12 c0 -3 -4 -8 -10 -11 -5 -3 -10 -1 -10 4 0 6 5 11 10 11 6 0 10 -2 10 -4z
m2880 0 c0 -3 -4 -8 -10 -11 -5 -3 -10 -1 -10 4 0 6 5 11 10 11 6 0 10 -2 10
-4z m-1887 -157 c-8 -8 -13 -7 -18 2 -5 8 -4 10 3 5 7 -4 12 -2 12 5 0 7 3 9
7 6 4 -4 2 -12 -4 -18z m-453 5 c0 -8 -19 -13 -24 -6 -3 5 1 9 9 9 8 0 15 -2
15 -3z m140 -6 c0 -4 -4 -8 -9 -8 -6 0 -12 4 -15 8 -3 5 1 9 9 9 8 0 15 -4 15
-9z m160 0 c0 -4 -4 -8 -9 -8 -6 0 -12 4 -15 8 -3 5 1 9 9 9 8 0 15 -4 15 -9z
m2420 6 c0 -8 -19 -13 -24 -6 -3 5 1 9 9 9 8 0 15 -2 15 -3z m-2141 -131 c-6
-7 -15 -10 -20 -7 -13 8 -3 21 15 21 12 0 13 -4 5 -14z m496 -213 c3 -5 1 -10
-4 -10 -6 0 -11 5 -11 10 0 6 2 10 4 10 3 0 8 -4 11 -10z m-201 -266 c6 -10
16 -22 21 -26 6 -5 5 -8 -2 -8 -7 0 -18 10 -24 23 -7 12 -17 26 -23 30 -7 6
-6 7 3 5 8 -2 19 -13 25 -24z m110 -180 c5 -14 9 -14 24 -3 15 13 16 12 4 -3
-10 -13 -10 -17 0 -21 7 -3 8 -6 2 -6 -6 -1 -21 10 -34 24 -13 14 -19 25 -13
25 6 0 14 -7 17 -16z m81 -104 c3 -6 -1 -7 -9 -4 -18 7 -21 14 -7 14 6 0 13
-4 16 -10z m501 -197 c-3 -3 -12 -1 -19 5 -8 7 -18 8 -22 4 -5 -4 -5 -1 -1 6
5 9 12 9 27 1 12 -6 18 -13 15 -16z m47 2 c-3 -9 -8 -14 -10 -11 -3 3 -2 9 2
15 9 16 15 13 8 -4z m291 7 c3 -5 -1 -9 -9 -9 -8 0 -15 4 -15 9 0 4 4 8 9 8 6
0 12 -4 15 -8z m140 0 c3 -5 -1 -9 -9 -9 -8 0 -12 4 -9 9 3 4 7 8 9 8 2 0 6
-4 9 -8z m371 -22 c-3 -5 -11 -10 -16 -10 -6 0 -7 5 -4 10 3 6 11 10 16 10 6
0 7 -4 4 -10z m-1211 -26 c3 -8 2 -12 -4 -9 -6 3 -10 10 -10 16 0 14 7 11 14
-7z m1255 -6 c-11 -21 -20 -24 -16 -5 1 6 -4 11 -10 10 -7 -2 -13 1 -13 6 0 5
11 8 24 7 20 -1 22 -4 15 -18z m-1214 -48 c-3 -5 -1 -10 6 -10 7 0 10 -3 6 -6
-9 -9 -28 6 -22 17 4 5 8 9 11 9 3 0 2 -4 -1 -10z m65 -106 c0 -8 -19 -13 -24
-6 -3 5 1 9 9 9 8 0 15 -2 15 -3z m30 2 c0 -2 -8 -10 -17 -17 -16 -13 -17 -12
-4 4 13 16 21 21 21 13z m1295 -936 c-10 -11 -23 -20 -28 -20 -6 0 0 9 13 20
13 11 25 20 28 20 3 0 -3 -9 -13 -20z m-1295 -60 c6 -11 8 -20 6 -20 -3 0 -10
9 -16 20 -6 11 -8 20 -6 20 3 0 10 -9 16 -20z m1240 -45 c0 -2 -6 -8 -13 -14
-10 -8 -14 -7 -14 2 0 8 6 14 14 14 7 0 13 -1 13 -2z m-125 -75 c3 -5 1 -10
-4 -10 -6 0 -11 5 -11 10 0 6 2 10 4 10 3 0 8 -4 11 -10z m-115 -34 c0 -2 -8
-10 -17 -17 -16 -13 -17 -12 -4 4 13 16 21 21 21 13z m67 -11 c0 -8 -4 -12 -9
-9 -4 3 -8 9 -8 15 0 5 4 9 8 9 5 0 9 -7 9 -15z"/>
<path d="M3596 4483 c-6 -14 -5 -15 5 -6 7 7 10 15 7 18 -3 3 -9 -2 -12 -12z"/>
<path d="M1760 4300 c-13 -8 -12 -10 3 -10 9 0 17 5 17 10 0 12 -1 12 -20 0z"/>
<path d="M4640 4300 c-13 -8 -12 -10 3 -10 9 0 17 5 17 10 0 12 -1 12 -20 0z"/>
<path d="M440 4276 c0 -2 7 -7 16 -10 8 -3 12 -2 9 4 -6 10 -25 14 -25 6z"/>
<path d="M4690 3886 c0 -2 7 -7 16 -10 8 -3 12 -2 9 4 -6 10 -25 14 -25 6z"/>
<path d="M4690 3726 c0 -2 7 -7 16 -10 8 -3 12 -2 9 4 -6 10 -25 14 -25 6z"/>
<path d="M420 3634 c0 -8 5 -12 10 -9 6 4 8 11 5 16 -9 14 -15 11 -15 -7z"/>
<path d="M2665 3630 c-3 -5 1 -10 10 -10 9 0 13 5 10 10 -3 6 -8 10 -10 10 -2
0 -7 -4 -10 -10z"/>
<path d="M2985 3630 c-3 -5 1 -10 10 -10 9 0 13 5 10 10 -3 6 -8 10 -10 10 -2
0 -7 -4 -10 -10z"/>
<path d="M2190 3621 c0 -6 4 -13 10 -16 6 -3 7 1 4 9 -7 18 -14 21 -14 7z"/>
<path d="M4685 3571 c-3 -5 -1 -12 5 -16 5 -3 10 1 10 9 0 18 -6 21 -15 7z"/>
<path d="M450 3310 c0 -5 5 -10 11 -10 5 0 7 5 4 10 -3 6 -8 10 -11 10 -2 0
-4 -4 -4 -10z"/>
<path d="M3330 3310 c0 -5 5 -10 11 -10 5 0 7 5 4 10 -3 6 -8 10 -11 10 -2 0
-4 -4 -4 -10z"/>
<path d="M1895 3161 c-3 -6 5 -15 17 -21 21 -10 21 -10 6 3 -10 8 -15 17 -11
20 3 4 4 7 0 7 -3 0 -8 -4 -12 -9z"/>
<path d="M627 3131 c-3 -13 -1 -18 9 -14 7 2 10 11 7 19 -7 19 -10 18 -16 -5z"/>
<path d="M3543 3122 c9 -10 14 -21 11 -24 -3 -3 -1 -9 4 -12 6 -3 9 2 7 11 -2
10 -4 21 -4 24 -1 4 -9 10 -18 13 -16 6 -16 6 0 -12z"/>
<path d="M655 3110 c-3 -5 -1 -10 4 -10 6 0 11 5 11 10 0 6 -2 10 -4 10 -3 0
-8 -4 -11 -10z"/>
<path d="M1551 3044 c0 -11 3 -14 6 -6 3 7 2 16 -1 19 -3 4 -6 -2 -5 -13z"/>
<path d="M1695 2820 c-3 -5 -2 -10 4 -10 5 0 13 5 16 10 3 6 2 10 -4 10 -5 0
-13 -4 -16 -10z"/>
<path d="M1755 2760 c-3 -5 -1 -10 4 -10 6 0 11 5 11 10 0 6 -2 10 -4 10 -3 0
-8 -4 -11 -10z"/>
<path d="M1820 2641 c0 -6 5 -11 11 -11 5 0 7 -4 4 -10 -3 -5 -1 -10 4 -10 16
0 13 16 -4 30 -10 9 -15 9 -15 1z"/>
<path d="M1876 2552 c-3 -5 1 -9 9 -9 8 0 12 4 9 9 -3 4 -7 8 -9 8 -2 0 -6 -4
-9 -8z"/>
<path d="M2335 2460 c3 -5 8 -10 11 -10 2 0 4 5 4 10 0 6 -5 10 -11 10 -5 0
-7 -4 -4 -10z"/>
<path d="M2355 2440 c-3 -5 -1 -10 4 -10 6 0 11 5 11 10 0 6 -2 10 -4 10 -3 0
-8 -4 -11 -10z"/>
<path d="M1975 2410 c-3 -5 1 -13 10 -16 22 -9 29 1 11 15 -10 8 -16 9 -21 1z"/>
<path d="M2507 2189 c7 -7 15 -10 18 -7 3 3 -2 9 -12 12 -14 6 -15 5 -6 -5z"/>
<path d="M2524 2159 c-2 -4 7 -16 21 -27 13 -11 21 -23 17 -27 -4 -5 -1 -5 7
0 11 6 9 11 -8 24 -15 12 -18 20 -11 27 8 8 6 11 -5 11 -9 0 -18 -4 -21 -8z"/>
<path d="M3673 1848 c7 -10 16 -18 21 -18 4 0 3 6 -3 13 -6 8 -9 16 -6 19 3 2
-1 5 -9 5 -11 0 -12 -4 -3 -19z"/>
<path d="M3695 1810 c3 -5 8 -10 11 -10 2 0 4 5 4 10 0 6 -5 10 -11 10 -5 0
-7 -4 -4 -10z"/>
<path d="M2340 1554 c0 -8 5 -12 10 -9 6 4 8 11 5 16 -9 14 -15 11 -15 -7z"/>
<path d="M3730 1486 c0 -2 7 -7 16 -10 8 -3 12 -2 9 4 -6 10 -25 14 -25 6z"/>
<path d="M2327 1399 c7 -7 15 -10 18 -7 3 3 -2 9 -12 12 -14 6 -15 5 -6 -5z"/>
<path d="M3725 1331 c-3 -5 -1 -12 5 -16 5 -3 10 1 10 9 0 18 -6 21 -15 7z"/>
<path d="M2330 980 c0 -5 5 -10 11 -10 5 0 7 5 4 10 -3 6 -8 10 -11 10 -2 0
-4 -4 -4 -10z"/>
<path d="M2473 725 c0 -8 4 -12 9 -9 5 3 6 10 3 15 -9 13 -12 11 -12 -6z"/>
<path d="M2585 661 c3 -2 -1 -11 -7 -20 -10 -13 -10 -14 2 -3 8 6 18 12 23 12
4 0 5 -6 1 -12 -4 -7 -3 -9 1 -5 17 15 13 36 -6 34 -10 -1 -16 -3 -14 -6z"/>
</g>
</svg>
